Coordinates
version=1
nRows=26
nColumns=24
inDegrees=yes

Units are S.I. units (second, meters, Newtons, ...)
Angles are in degrees.

endheader
time	pelvis_tilt	pelvis_list	pelvis_rotation	pelvis_tx	pelvis_ty	pelvis_tz	hip_flexion_r	hip_adduction_r	hip_rotation_r	knee_angle_r	ankle_angle_r	subtalar_angle_r	mtp_angle_r	hip_flexion_l	hip_adduction_l	hip_rotation_l	knee_angle_l	ankle_angle_l	subtalar_angle_l	mtp_angle_l	lumbar_extension	lumbar_bending	lumbar_rotation
      3.72000000	     -7.14705360	      1.74147329	     -2.42412943	     -0.12710831	      0.88964360	     -0.00534503	     -8.25002645	     -2.30054666	     -5.47505898	     -8.49311717	     20.34666370	      0.00000056	      0.00000000	     53.35509301	     -2.56840982	     -7.48038875	    -35.14244127	     11.13253970	      0.00000000	      0.00000000	    -15.30402490	     -5.77426050	      5.60492423
      3.73000000	     -7.10797605	      1.74653786	     -2.87558164	     -0.12548614	      0.88761005	     -0.00577429	     -8.68670174	     -2.62684288	     -5.21225866	     -9.50061001	     21.11842476	      0.00000059	      0.00000000	     53.32731520	     -2.62333872	     -7.23054654	    -36.86568471	     10.23828776	      0.00000004	      0.00000000	    -15.21110963	     -6.02309994	      5.85257325
      3.74000000	     -7.11880057	      1.72703248	     -3.31028687	     -0.12369684	      0.88608935	     -0.00627211	     -9.01333971	     -2.94317173	     -4.92416912	    -10.59293315	     21.80382675	      0.00000057	      0.00000000	     53.24415140	     -2.66610808	     -7.18543297	    -38.34362021	      9.35400012	      0.00000000	      0.00000000	    -15.08969583	     -6.25807845	      6.09906455
      3.75000000	     -7.11946296	      1.69633434	     -3.72921941	     -0.12193712	      0.88519302	     -0.00693566	     -9.28312112	     -3.25449103	     -4.46924456	    -11.74229753	     22.15374078	      0.00000058	      0.00000000	     53.19869058	     -2.66324961	     -6.95741242	    -39.94160132	      8.98398133	      0.00000007	      0.00000000	    -15.01864190	     -6.47737928	      6.30663100
      3.76000000	     -7.07489055	      1.73561903	     -4.08729663	     -0.11992961	      0.88511318	     -0.00786142	     -9.45963047	     -3.69252886	     -4.09872241	    -13.12205550	     22.44788109	      0.00000063	      0.00000000	     53.39527363	     -2.59301131	     -6.56240293	    -42.21078800	     11.04001534	      0.00000010	      0.00000000	    -15.03756039	     -6.75753660	      6.46481066
      3.77000000	     -7.01627067	      1.85397727	     -4.40855877	     -0.11783368	      0.88576470	     -0.00910415	     -9.43502538	     -4.26112044	     -3.77959002	    -14.84096588	     22.72956077	      0.00000062	      0.00000000	     53.40936018	     -2.47044644	     -6.25048127	    -44.21812490	     13.47226216	      0.00000011	      0.00000000	    -15.10906980	     -7.09987517	      6.60087699
      3.78000000	     -6.93331840	      2.01698626	     -4.70343135	     -0.11580755	      0.88716532	     -0.01028156	     -9.17639051	     -4.89967129	     -3.51732759	    -16.91209408	     22.95549978	      0.00000061	      0.00000000	     53.13866772	     -2.27903077	     -6.07020321	    -45.83002756	     15.89818323	      0.00000006	      0.00000000	    -15.24292296	     -7.49594203	      6.73646780
      3.79000000	     -6.90968002	      2.11829685	     -4.95563672	     -0.11377385	      0.88898042	     -0.01166391	     -8.62155266	     -5.45844676	     -3.25642687	    -19.28461772	     22.75804915	      0.00000060	      0.00000000	     52.68810066	     -2.05863383	     -5.85889841	    -47.01369184	     17.90436195	      0.00000006	      0.00000000	    -15.32150532	     -7.81236728	      6.93324592
      3.80000000	     -6.89133633	      2.07087213	     -5.14495691	     -0.11159386	      0.89117400	     -0.01312179	     -7.84604074	     -5.81704760	     -3.08297865	    -21.89953812	     22.17813581	      0.00000060	      0.00000000	     52.00161724	     -1.90168723	     -5.63323191	    -47.76712757	     19.12224118	      0.00000006	      0.00000000	    -15.31480723	     -7.89471628	      7.02250880
      3.81000000	     -6.94816521	      1.95642608	     -5.33581082	     -0.10978335	      0.89364771	     -0.01450031	     -6.65097898	     -6.01640138	     -2.84836525	    -24.89897033	     21.11997846	      0.00000055	      0.00000000	     51.16068082	     -1.83683288	     -5.51780923	    -48.03715301	     19.60636980	      0.00000013	      0.00000000	    -15.26634774	     -7.92633251	      7.18106255
      3.82000000	     -7.06177170	      1.71249669	     -5.49344906	     -0.10820169	      0.89639083	     -0.01573776	     -5.16373959	     -5.98612015	     -2.66987063	    -28.08407988	     19.41306125	      0.00000058	      0.00000000	     50.22970558	     -1.97214889	     -5.52865675	    -48.02564827	     19.76068619	      0.00000008	      0.00000000	    -15.15903506	     -7.81900352	      7.30940671
      3.83000000	     -7.18220384	      1.43099759	     -5.63183910	     -0.10699789	      0.89941304	     -0.01692916	     -3.33106957	     -5.84295063	     -2.45137232	    -31.71299898	     17.49778641	      0.00000051	      0.00000000	     49.23694038	     -2.18086937	     -5.59371160	    -47.87505403	     19.95270677	      0.00000014	      0.00000000	    -15.05945048	     -7.66074741	      7.38264955
      3.84000000	     -7.27760725	      1.13312321	     -5.70577004	     -0.10605810	      0.90271832	     -0.01799725	     -1.35963271	     -5.54760607	     -2.08446240	    -35.47655821	     14.77786877	      0.00000055	      0.00000000	     48.17545140	     -2.44183982	     -5.71454453	    -47.65220352	     20.41738355	      0.00000017	      0.00000000	    -15.00091921	     -7.47746698	      7.34476398
      3.85000000	     -7.38216520	      0.82156651	     -5.75118048	     -0.10550355	      0.90611117	     -0.01895679	      0.66310186	     -5.09828647	     -1.57415671	    -39.13727332	     10.47771380	      0.00000060	      0.00000000	     47.09089936	     -2.73644774	     -5.84661417	    -47.33732137	     20.82373738	      0.00000021	      0.00000000	    -14.95125634	     -7.25593471	      7.22288995
      3.86000000	     -7.49461691	      0.55888676	     -5.83154483	     -0.10518789	      0.90965572	     -0.01969434	      2.73713022	     -4.57146837	     -0.97015565	    -42.70662508	      5.09179750	      0.00000053	      0.00000000	     45.81412058	     -3.06263550	     -6.13745705	    -46.63798162	     20.63611531	      0.00000020	      0.00000000	    -14.87943858	     -7.08938016	      7.10955948
      3.87000000	     -7.62630374	      0.28101767	     -5.73103635	     -0.10558561	      0.91312299	     -0.02070730	      5.13411864	     -4.06647772	     -0.73190261	    -46.72502302	      0.27960244	      0.00000058	      0.00000000	     44.66343427	     -3.21486879	     -6.16669575	    -46.02469222	     20.86891882	      0.00000024	      0.00000000	    -14.85878857	     -6.84754011	      6.79519197
      3.88000000	     -7.72112709	      0.10687428	     -5.79436232	     -0.10597923	      0.91675322	     -0.02117258	      7.47538829	     -3.57522799	     -0.33872007	    -50.57781235	     -4.11401909	      0.00000055	      0.00000000	     43.38297191	     -3.42787351	     -6.36709605	    -45.25802511	     21.07297803	      0.00000019	      0.00000000	    -14.82450458	     -6.76394665	      6.63769770
      3.89000000	     -7.75493328	      1.90677716	     -5.65030645	     -0.10656274	      0.91438500	     -0.01958459	     15.39157147	      1.69659281	      8.84855023	    -63.33195353	     14.07455645	      0.00000075	      0.00000000	     42.56183864	     -2.09139351	     -7.79095097	    -45.20284202	     21.37218385	      0.00000022	      0.00000000	    -14.48861822	     -9.07145809	      5.83299351
      3.90000000	     -7.91036821	      1.87455114	     -5.57660532	     -0.10686600	      0.91782401	     -0.02020742	     17.09712218	      1.90817224	      8.58901473	    -65.38249743	     11.78418028	      0.00000084	      0.00000000	     41.26702991	     -2.04327096	     -7.96490429	    -44.29244116	     21.74936594	      0.00000024	      0.00000000	    -14.32387768	     -9.07406093	      5.55532757
      3.91000000	     -8.08916463	      1.81663333	     -5.47136630	     -0.10726467	      0.92115439	     -0.02091281	     18.73994690	      2.09735397	      8.23348033	    -67.07217217	     10.71677410	      0.00000091	      0.00000000	     39.95823316	     -2.00418870	     -8.11818144	    -43.23126451	     21.98249391	      0.00000027	      0.00000000	    -14.12832714	     -9.00169406	      5.25533928
      3.92000000	     -8.30058854	      1.75165114	     -5.35566221	     -0.10777461	      0.92454948	     -0.02160527	     20.46081336	      2.21212604	      7.83444273	    -68.38503313	      9.28096074	      0.00000087	      0.00000000	     38.61615931	     -1.96537889	     -8.19998916	    -42.07978504	     21.99227963	      0.00000016	      0.00000000	    -13.91228954	     -8.90690551	      4.99886238
      3.93000000	     -8.70540651	      1.36486532	     -5.08785213	     -0.10898577	      0.92737128	     -0.02249033	     22.45397277	      2.59077636	      7.19225584	    -69.27439900	      7.42002999	      0.00000090	      0.00000000	     37.56989746	     -2.13605003	     -7.96551000	    -40.89337540	     21.56234079	      0.00000015	      0.00000000	    -13.59283601	     -8.40292615	      4.69395830
      3.94000000	     -8.71404869	      1.51587417	     -5.17532864	     -0.10881110	      0.93122275	     -0.02287981	     23.98736037	      2.40072856	      6.92203396	    -69.77503766	      5.17597114	      0.00000104	      0.00000000	     35.60049647	     -1.93682666	     -8.36869344	    -38.93765491	     20.49034237	      0.00000019	      0.00000000	    -13.49177701	     -8.58214755	      4.57991171
      3.95000000	     -8.89949475	      1.31869094	     -5.06697050	     -0.10966701	      0.93446487	     -0.02347772	     25.72394362	      2.48690638	      6.22647499	    -69.89396638	      2.51428767	      0.00000100	      0.00000000	     34.08139520	     -1.97416726	     -8.42338452	    -37.35525481	     19.89312444	      0.00000015	      0.00000000	    -13.35593094	     -8.32870566	      4.35411294
      3.96000000	     -9.06310027	      1.10266915	     -4.92678669	     -0.11062182	      0.93760595	     -0.02416932	     27.37606891	      2.51627016	      5.38526654	    -69.61929748	     -0.04488235	      0.00000109	      0.00000000	     32.49519808	     -1.98146667	     -8.38998543	    -35.59726207	     19.09316303	      0.00000021	      0.00000000	    -13.27946908	     -8.04613587	      4.11291728
      3.97000000	     -9.74742033	     -0.61610243	     -5.22180681	     -0.11353748	      0.94446863	     -0.02682146	     29.72247581	     -2.46478535	     -2.26953990	    -69.96842819	      2.44996058	      0.00000065	      0.00000000	     31.24123906	     -3.35781556	     -7.68947573	    -33.41682658	     19.12691957	      0.00000011	      0.00000000	    -13.05080587	     -5.84370873	      4.58174882
